<?xml version="1.0" encoding="utf-8"?>
<!-- Generator: Adobe Illustrator 19.0.0, SVG Export Plug-In . SVG Version: 6.00 Build 0)  -->
<svg version="1.1" id="Layer_1" xmlns="http://www.w3.org/2000/svg" xmlns:xlink="http://www.w3.org/1999/xlink" x="0px" y="0px"
	 viewBox="0 0 1200 1200" style="enable-background:new 0 0 1200 1200;" xml:space="preserve">
<style type="text/css">
	.st0{fill:#FFFFFF;}
	.st1{fill:url(#SVGID_1_);}
	.st2{fill:url(#SVGID_2_);}
	.st3{fill:url(#SVGID_3_);}
	.st4{fill:url(#SVGID_4_);}
	.st5{fill:url(#SVGID_5_);}
	.st6{fill:url(#SVGID_6_);}
	.st7{fill:url(#SVGID_7_);}
	.st8{fill:url(#SVGID_8_);}
	.st9{fill:url(#SVGID_9_);}
	.st10{fill:url(#SVGID_10_);}
</style>
<rect x="0" y="0" class="st0" width="1200" height="1200"/>
<g>
	<g>
		<linearGradient id="SVGID_1_" gradientUnits="userSpaceOnUse" x1="193.2367" y1="1137.5266" x2="193.2367" y2="915.3095">
			<stop  offset="0" style="stop-color:#FFFFFF"/>
			<stop  offset="0.4534" style="stop-color:#FDFDFD"/>
			<stop  offset="0.6168" style="stop-color:#F6F6F6"/>
			<stop  offset="0.7332" style="stop-color:#EBEBEB"/>
			<stop  offset="0.8273" style="stop-color:#DADADA"/>
			<stop  offset="0.9079" style="stop-color:#C4C4C4"/>
			<stop  offset="0.978" style="stop-color:#A9A9A9"/>
			<stop  offset="1" style="stop-color:#9F9F9F"/>
		</linearGradient>
		<path class="st1" d="M225.2,1010.5c-0.1-8-0.4-16-1-23.9c-0.6-8.2-1.6-16.4-1.3-24.7c0.2-6,3.8-14.6,0.1-20
			c1.3,0.4,1.9-1.1,2.4-1.9c0.7-1.1,2-1.6,3.1-2.2c3.3-1.6,6.4-3.1,8.9-5.9c2.2-2.3,4.3-5.7,7.7-6.1c2.5-0.3,5.3,0,6.2-2.9
			c-1.1,0.2-3.3,2.2-4.1,0.4c0.8-1.5,4.8-3.8,4.9-0.7c0.4-2,1.7-2.6,3.5-3.3c2.1-0.8,3.2-2.5,5.1-3.4c3.9-1.8,8.3-2,12-3.9
			c3.3-1.7,4.4-6.2,4.2-9.6c-0.2-3.8-5-5-8-6.3c-8.2-3.6-17.5-5.9-26.4-6.9c-4.4-0.5-8.9-0.4-13.2,0.6c-3.7,0.9-7.2,2.3-10.9,3.3
			c-10.4,2.8-21.3,2.7-31.9,5c-2.9,0.6-8.6,1.6-7.1,5.7c1.1,2.8,3.1,4.7,1.8,7.9c-0.6,1.5-1.5,2.9-1.7,4.5c-0.2,1.8,0.1,3.5,0.1,5.3
			c0.1,7.5-4.5,14.1-2.9,21.6c1.4,6.6-3.5,13.6-4.9,19.8c-0.9,3.9,0,7.9-0.3,11.9c-0.2,3.9-0.7,7.7-1.4,11.6
			c-1.3,7.7-3.3,15.2-4.8,22.8c-1.9-9-4.1,36-4.5,26.7c-0.4-9.4,0.4-18.7-0.3-28.1c-0.4-4.5-1-9-1.3-13.5c-0.3-3.5,0-7.8-2-10.8
			c-0.7-1-2.2-2.6-1.9-4c0.3-1.3,1.3-2.5,2-3.6c1.9-3,4.6-6.9,3.5-10.6c-1.9-1.4-3.4,2.1-4.9,1.1c0.4-2.6,4.8-6.6,2.2-8.6
			c-2.1,4-3.1,9.2-6,12.3c0.8-3.6,1-7.3,1.3-11c0.2-1.9,0.4-3.8,0.8-5.6c0.3-1.5,1.3-2.5,1.7-3.9c1-3.4,1.2-7.1,1.2-10.6
			c0-1.5,0.1-3.1-0.3-4.6c-0.3-1.3-0.8-2.5-0.9-3.8c-0.2-2.5,2.6-4.8,0.7-7.1c-1.5-1.8-4.2-2.5-6.3-3c-4.4-1.1-9-1.4-13.6-1.6
			c-6.7-0.3-23.5-1.7-24.6,8c-0.3,3.1,0.6,6.2,0.8,9.3c0.2,3.1-0.9,6.1-0.8,9.2c0.1,1.7,0.8,3.1,1.4,4.6c0.6,1.6,0.8,3.4,1.2,5.1
			c0.7,3.4,1.4,6.8,2,10.2c-2.5-2.1-3.5-5.7-6-7.8c0.3,1.7,1.2,3.2,2,4.8c0.5,0.9,1.3,1.7,0.4,2.4c-0.5,0.4-0.9,0.8-1.2,1.3
			c-1.3,2.2,0.2,5,1.1,7.1c1.2,2.5,2.1,4.5,1.4,7.3c-0.8,3.3-1.6,5.9-1.2,9.4c0.4,3.1-1.9,7-2.9,9.8c-1.1,3.2-1.3,6.3-1.1,9.6
			c0.3,6.1,0.5,13.2,3.7,18.6c3.5,5.7,1.1,14.1,1,20.5c-0.2,7.9,0.6,15.9,0.9,23.8c0.1,4.8,0.1,9.7,0.3,14.5H228
			c-1.4-20.9-2.5-47.5-3-52.6C224.3,1026.2,225.3,1018.3,225.2,1010.5z M114.7,968.3c2.2,1.3,3.3,3.7,4.1,6.3
			C115.9,974.1,115.8,970.7,114.7,968.3z"/>
	</g>
	<g>
		<linearGradient id="SVGID_2_" gradientUnits="userSpaceOnUse" x1="325.7619" y1="1137.5264" x2="325.7619" y2="915.3098">
			<stop  offset="0" style="stop-color:#FFFFFF"/>
			<stop  offset="0.4534" style="stop-color:#FDFDFD"/>
			<stop  offset="0.6168" style="stop-color:#F6F6F6"/>
			<stop  offset="0.7332" style="stop-color:#EBEBEB"/>
			<stop  offset="0.8273" style="stop-color:#DADADA"/>
			<stop  offset="0.9079" style="stop-color:#C4C4C4"/>
			<stop  offset="0.978" style="stop-color:#A9A9A9"/>
			<stop  offset="1" style="stop-color:#9F9F9F"/>
		</linearGradient>
		<path class="st2" d="M361.5,1059.6c-0.2-3.3-1.5-6.4-1.4-9.8c0.1-3.2,0.5-7.2,1-10.5c0.3-1.6,1.2-3,1.4-4.5
			c0.1-1.5-0.5-3.1-0.4-4.5c0.5-4.2,3.6-9,4.5-14.3c2.9-16.6,1-34.2,1-53.5c0-8.6,0.4-18.4,0-28.3c-0.4-9.7-1.1-19.3-0.7-28.3
			c0.2-5,2.6-11.3-3.5-11.5c-0.2-6.2-9.1-5.3-16.8-5.9c-21.1-1.7-50.5-11.1-63.6,2.8c0.8,5.3-1.1,10.1,1,13.3
			c1.3,2,6.5,2.4,10.1,2.8c6.4,0.7,11.6,2.3,17.8,3.1c2,6.6,6,13.4,6.6,23.1c0.9,13.3,0.1,28.6,1,42.6c0.4,6,2,11.7,3.1,17.1
			c1.6,7.4,4.4,16.6,2.4,23.8c-1,3.6-4.1,5.6-4.5,10.1c-0.6,7.2,1.4,14.8,0.7,22.4c-0.3,3.5-1,19.2-1.9,37h41.6
			C361.5,1072.3,361.5,1060.3,361.5,1059.6z"/>
		<linearGradient id="SVGID_3_" gradientUnits="userSpaceOnUse" x1="418.3753" y1="1137.5262" x2="418.3753" y2="915.3092">
			<stop  offset="0" style="stop-color:#FFFFFF"/>
			<stop  offset="0.4534" style="stop-color:#FDFDFD"/>
			<stop  offset="0.6168" style="stop-color:#F6F6F6"/>
			<stop  offset="0.7332" style="stop-color:#EBEBEB"/>
			<stop  offset="0.8273" style="stop-color:#DADADA"/>
			<stop  offset="0.9079" style="stop-color:#C4C4C4"/>
			<stop  offset="0.978" style="stop-color:#A9A9A9"/>
			<stop  offset="1" style="stop-color:#9F9F9F"/>
		</linearGradient>
		<path class="st3" d="M447.4,958.3c-2-0.7-5.2-0.2-7.3-0.7c2.8-9,9.7-11.8,9.1-24.1c-0.1-1.6,0.1-4.3-0.4-5.6
			c-1.8-5.4-12.9-5.9-19.9-5.2c-7.2,0.7-14.8,6.2-16.1,12.2c-0.7,3.2-0.4,8.2-0.4,11.9c0.1,2.6,2.1,5.3,0.4,8.4
			c-1,1.8-3.8,1.1-5.6,2.8c2.6,22.9-2.5,48-8,69.5c-2.5,9.7-5.4,19-7,28.3c-1.7,10.2-1.6,20.8-4.5,30.4c0,0.1-0.1,0.2-0.1,0.3h39
			c6.9-20.3,7.5-46.2,13.1-68.8C444,1000.5,449.3,980.8,447.4,958.3z"/>
		<linearGradient id="SVGID_4_" gradientUnits="userSpaceOnUse" x1="490.6428" y1="1137.5266" x2="490.6428" y2="915.3078">
			<stop  offset="0" style="stop-color:#FFFFFF"/>
			<stop  offset="0.4534" style="stop-color:#FDFDFD"/>
			<stop  offset="0.6168" style="stop-color:#F6F6F6"/>
			<stop  offset="0.7332" style="stop-color:#EBEBEB"/>
			<stop  offset="0.8273" style="stop-color:#DADADA"/>
			<stop  offset="0.9079" style="stop-color:#C4C4C4"/>
			<stop  offset="0.978" style="stop-color:#A9A9A9"/>
			<stop  offset="1" style="stop-color:#9F9F9F"/>
		</linearGradient>
		<path class="st4" d="M515,999.2c-0.3-1.7-1.4-3.9-1.4-5.2c0-1.3,0.9-2.9,1-4.5c0.3-3.2,0.4-7.5,0-10.5c-0.2-1.5-1.2-3.2-1.4-4.9
			c-0.9-6.4,2.6-12.9,1-17.8c-1.7-5.2-8.1-7.4-16-5.9c1.6-5.4,1.6-7.8,0.7-13.6c-0.5-3.2,0-5.9-1.4-8c-3.2-4.9-14.7-5.2-21.6-4.2
			c-6.5,0.9-17.4,3-19.2,7.3c-2.5,6.1,3.2,17.5,4.9,21.6c-8.8,0.6-7.8,8.2-7.7,18.8c0,5.6-0.9,12.4,0,16c0.6,2.5,3.4,3.4,3.8,4.9
			c1,3.6-1.1,11.3-0.7,16.4c0.4,4.8,2.5,9.6,3.1,14.6c2.1,15.7,2.5,32.3,5.9,46.7c1.2,5.2,2.4,10.3,3.6,15.4h57.9
			c-1-7.1-1.1-14.2-2.2-21.4C522.2,1043.2,519.3,1020.9,515,999.2z"/>
		<linearGradient id="SVGID_5_" gradientUnits="userSpaceOnUse" x1="622.2795" y1="1137.5265" x2="622.2795" y2="915.3085">
			<stop  offset="0" style="stop-color:#FFFFFF"/>
			<stop  offset="0.4534" style="stop-color:#FDFDFD"/>
			<stop  offset="0.6168" style="stop-color:#F6F6F6"/>
			<stop  offset="0.7332" style="stop-color:#EBEBEB"/>
			<stop  offset="0.8273" style="stop-color:#DADADA"/>
			<stop  offset="0.9079" style="stop-color:#C4C4C4"/>
			<stop  offset="0.978" style="stop-color:#A9A9A9"/>
			<stop  offset="1" style="stop-color:#9F9F9F"/>
		</linearGradient>
		<path class="st5" d="M621.4,1057.6c0.5-3.3,1.6-6.5,2.4-9.8c0.9-3.4,1-6.7,1.4-10.5c1.5-13.4,4.3-27.8,4.5-43.6
			c0.1-4,0.1-2.5,0.3-6.5c0.2-3.9-0.3-8.4,0.3-11.5c0.9-4,5.1-6.6,5.9-11.5c0.4-2.7-0.6-6.4,0-9.8c0.7-3.8,4.1-6.2,3.8-12.6
			c-0.1-2.3-1.7-4.7-1.4-6.6c1.5-8.4,24.5-9,31.7-13.2c6.6-3.8,8.5-9,8.7-19.2c-8.4-3-19.7-2.4-30-1.4c-13,1.3-25.8,2.8-33.8,8.4
			c-4.6-3.8-11.6-1.9-19.2-0.7c-4.6,0.7-9,1.6-11.9,3.1c-0.9,4.7,0,9.9,0,13.6c-5.2,0.2-7.8,2.4-10.8,5.2c-1.6,1.5-3,2-3.5,3.5
			c-1,2.9,0.2,9.3-0.3,14.3c-0.3,2.3-1.4,4-1.4,5.6c0,1.5,1.1,2.9,1.4,4.9c0.4,2.8-0.2,6,0.3,8.4c0.4,1.7,1.8,3.2,2.1,4.9
			c1.2,6.1-0.3,9.4-1.4,16.9c-1,7.1-2.2,13.7-2.8,20.6c-1.4,15.2,0.7,30.2-0.4,45.3c-0.4,5.6-1.3,17.5-2.4,31h55.1
			C620.4,1073.8,620.6,1062.7,621.4,1057.6z"/>
		<linearGradient id="SVGID_6_" gradientUnits="userSpaceOnUse" x1="705.7794" y1="1137.5266" x2="705.7794" y2="915.3086">
			<stop  offset="0" style="stop-color:#FFFFFF"/>
			<stop  offset="0.4534" style="stop-color:#FDFDFD"/>
			<stop  offset="0.6168" style="stop-color:#F6F6F6"/>
			<stop  offset="0.7332" style="stop-color:#EBEBEB"/>
			<stop  offset="0.8273" style="stop-color:#DADADA"/>
			<stop  offset="0.9079" style="stop-color:#C4C4C4"/>
			<stop  offset="0.978" style="stop-color:#A9A9A9"/>
			<stop  offset="1" style="stop-color:#9F9F9F"/>
		</linearGradient>
		<path class="st6" d="M725.4,1067c-0.2-3.5,0.4-7.7,0.3-11.1c-0.4-18.8-7.5-35.7-10.9-52.9c-2.6-13.1-6.3-25.6-6.7-41
			c-0.2-7.6-1.3-12,2-17c0.7-1.1,2.2-1.7,3.2-3.4c1.1-2,1.6-4.1,0.2-6.2c1.5-2.6,2.3-5.9,4.4-7.8c3.8,0.7,7.2-1,8.8-3.6
			c0.5-0.8,0.6-2.3,1.1-3.4c1.1-2.4,3.5-5.7,4.1-8.5c-5.7-2.6-16.7-3.4-25.2-3.2c-4.2,0.1-12.3,0.1-14.9,2c-2.8,2-3.3,9.3-4.9,12.3
			c-0.5,1-1.5,2.1-2.2,3.1c-2.4,3.8-7.8,11.1-3.6,16.1c-1.1,3.2,0.1,5.1,1.2,7.6c0.4,1.1,0.5,2.4,0.9,3.1c1.1,1.8,3.9,2.4,5.1,4
			c0.4,0.5,1.4-2.4,1.9-0.9c1.9,5.2,1,13.8,0.8,21.5c-0.2,5.5-0.2,11-0.5,16.2c-0.5,10.3-1.7,20.6-2.6,30.4
			c-2.2,23.7,1.7,43.9,10.4,58.7c0.7,1.1,1.6,2.2,2.5,3.4h30.1c-0.7-1.8-1.4-3.5-2.1-5.2C727.2,1077.2,725.7,1073.1,725.4,1067z
			 M686.4,954.3C685.5,953.3,687.4,955.3,686.4,954.3L686.4,954.3z"/>
		<linearGradient id="SVGID_7_" gradientUnits="userSpaceOnUse" x1="756.044" y1="1137.5267" x2="756.044" y2="915.3079">
			<stop  offset="0" style="stop-color:#FFFFFF"/>
			<stop  offset="0.4534" style="stop-color:#FDFDFD"/>
			<stop  offset="0.6168" style="stop-color:#F6F6F6"/>
			<stop  offset="0.7332" style="stop-color:#EBEBEB"/>
			<stop  offset="0.8273" style="stop-color:#DADADA"/>
			<stop  offset="0.9079" style="stop-color:#C4C4C4"/>
			<stop  offset="0.978" style="stop-color:#A9A9A9"/>
			<stop  offset="1" style="stop-color:#9F9F9F"/>
		</linearGradient>
		<path class="st7" d="M772,1071.8c1.9-23.9-4.1-42.4-8.2-61.1c-1.6-7.5-3.1-15.3-4.9-23c-2-8.8-5.5-23.9-4.1-32.9
			c0.3-1.9,1.4-4,1.6-5.8c0.2-2.3-0.6-4.5-0.2-6.2c0.8-2.9,3.5-4.2,5.7-7.1c1-1.2,1.7-2.7,2.5-4.1c0.9-1.4,1.5-3.2,2.2-4.1
			c1.7-2.2,4.6-3.4,6.7-5c2.1-1.6,2.2-2,2.6-5.1c0-0.3,0.7-0.6,0.7-0.7c0.2-2.1,0.3-4.5-0.2-5.5c-1.2-2.9-11.4-6.5-16.7-6.7
			c-5.5-0.2-10.7,2.2-13.3,4.8c-0.2,2.1,0,4-0.9,5.5c-1.6,3.1-9.8,5.7-4.5,11.3c-1.5,4.6-4.2,12.1-1.5,16.9
			c-0.7,2.4-2.1,3.4-2.2,5.8c-0.2,3.2,2.3,7.1,2.8,10.8c0.2,1.2,0.2,2.5,0.2,3.5c0.5,13.3-0.9,33.9-1.9,47.6
			c-1,13.5-3.8,26.7-3.2,39.3c0.5,10.9,3.5,21.3,7.1,30.3c0.9,2.2,2.1,4.3,2.9,6.2h25.2C770.2,1081.9,771.6,1076.8,772,1071.8z
			 M741.1,940.3c-2.4,0.4-1.8-3.3-0.2-3.5C740.6,938.3,741.4,938.8,741.1,940.3z"/>
		<linearGradient id="SVGID_8_" gradientUnits="userSpaceOnUse" x1="849.1744" y1="1137.5266" x2="849.1744" y2="915.3082">
			<stop  offset="0" style="stop-color:#FFFFFF"/>
			<stop  offset="0.4534" style="stop-color:#FDFDFD"/>
			<stop  offset="0.6168" style="stop-color:#F6F6F6"/>
			<stop  offset="0.7332" style="stop-color:#EBEBEB"/>
			<stop  offset="0.8273" style="stop-color:#DADADA"/>
			<stop  offset="0.9079" style="stop-color:#C4C4C4"/>
			<stop  offset="0.978" style="stop-color:#A9A9A9"/>
			<stop  offset="1" style="stop-color:#9F9F9F"/>
		</linearGradient>
		<path class="st8" d="M889.8,1061.1c-0.9-19.2,1.1-36.8,3.2-54.6c1-8.6,1.5-18,3.2-25.9c0.6-2.8,2-5.7,2-8.1c0-2.3-1.6-5.4-1.6-8.1
			c0-2,1.4-4,1.2-5.8c-0.2-2.1-3.1-4.8-3.2-7.4c-0.1-2.3,2-4.5,2-7c0-1.3-0.9-1.3-1.2-2.3c-0.4-1.3,0.6-2.2-0.4-3.5
			c0.8-1.3,1.5-1.4,2-3.5c0.6-2.6-0.1-6.7-0.4-8.9c-5.9-1.2-12-3-19.2-2.7c-4.4,0.1-8.9,2.4-12.8,1.9c-2.5-0.3-4.8-3-7.6-3.9
			c-3.9-1.2-9-0.9-14-1.2c-15.2-0.7-30.8-0.6-42.7,2.7c-1,2.9,1.9,2,1.6,4.3c-0.5,8.5,5.5,9.3,12,11.6c7,2.5,13.1,4.5,20,7.7
			c2.9,1.4,8,4.2,8.4,5.4c0.4,1.2-0.6,3.3-0.8,5.4c-0.2,2.3,0.3,5.1,0,6.6c-0.3,1.5-1.5,2.9-2,4.3c-0.6,1.7-1.3,3.4-1.2,5.4
			c0.2,5.3,4.4,9.7,4,15.5c-0.5,6.7-6.1,10-7.6,13.9c-0.4,1,0,2.7-0.4,4.3c-0.9,3.3-2.4,8.4-2,12.4c0.5,4.3,3.8,8.8,4.4,13.2
			c0.6,4.1,0,9.2-0.4,13.9c-1.2,13.2-4,26.1-4.8,39.1c0,0.2,0,0.4,0,0.6H889C889.6,1077.8,890.2,1069.3,889.8,1061.1z"/>
		<linearGradient id="SVGID_9_" gradientUnits="userSpaceOnUse" x1="936.301" y1="1137.5265" x2="936.301" y2="915.3098">
			<stop  offset="0" style="stop-color:#FFFFFF"/>
			<stop  offset="0.4534" style="stop-color:#FDFDFD"/>
			<stop  offset="0.6168" style="stop-color:#F6F6F6"/>
			<stop  offset="0.7332" style="stop-color:#EBEBEB"/>
			<stop  offset="0.8273" style="stop-color:#DADADA"/>
			<stop  offset="0.9079" style="stop-color:#C4C4C4"/>
			<stop  offset="0.978" style="stop-color:#A9A9A9"/>
			<stop  offset="1" style="stop-color:#9F9F9F"/>
		</linearGradient>
		<path class="st9" d="M964,1057.6c-0.7-5.4-2-10.5-2.4-15.9c-1.3-17.4-3.9-36,0.4-50.7c1.1-3.7,3.7-6.7,3.6-10.5
			c-0.2-5.7-5.1-8.5-6-13.2c-1.1-5.9,1-10.3-1.2-15.9c-2.7-2.1-4.4,3.1-5.6,1.2c1.9-2.2,4-5.1,6.4-8.1c2.2-2.8,5.5-5.9,6-8.9
			c0.2-1.7-0.8-3.1-0.8-5c0-1.1,1.1-1.9,1.2-2.7c1-8.8-11.7-8.1-21.2-8.1c-8,0-18.6-0.3-20.8,4.6c-1.3,2.8,0.3,5.3,0,7
			c-0.4,1.8-2,3.3-2.4,5c-1.3,5,0.7,9.9-0.4,16.6c-2.5,0.8-4.5-0.7-7.6-0.4c1.1,7.3-4.1,11.1-5.6,15.5c-1.7,5.1-0.4,8.2,0.4,12.4
			c4.4,23.2,3.6,51.4,3.6,78.6c0,9,0.7,18.3,0.5,27.3h53.1c0-0.8,0-1.7-0.1-2.6C964.9,1075.2,965.2,1066.2,964,1057.6z"/>
		<linearGradient id="SVGID_10_" gradientUnits="userSpaceOnUse" x1="1086.9814" y1="1137.5266" x2="1086.9814" y2="915.3082">
			<stop  offset="0" style="stop-color:#FFFFFF"/>
			<stop  offset="0.4534" style="stop-color:#FDFDFD"/>
			<stop  offset="0.6168" style="stop-color:#F6F6F6"/>
			<stop  offset="0.7332" style="stop-color:#EBEBEB"/>
			<stop  offset="0.8273" style="stop-color:#DADADA"/>
			<stop  offset="0.9079" style="stop-color:#C4C4C4"/>
			<stop  offset="0.978" style="stop-color:#A9A9A9"/>
			<stop  offset="1" style="stop-color:#9F9F9F"/>
		</linearGradient>
		<path class="st10" d="M1124.4,1035.8c-3.7-9.8-5.4-20.7-8.9-30.4c-2.4-6.9-5.7-13.7-9.2-20c-2.5-4.5-3.6-6.1-7.7-8.9
			c-3.7-2.5-8-6-11.9-8.5c0.1-2.9,0.8-5.8,1.5-8.9c1.2-4.8,4.5-9.3,0-12.3c4.7-5.8,5.4-16.8,3.5-26.2c-4.4-2.2-10.7-1.8-16.2-1.5
			c-5.4,0.2-11.5,0.7-15.4,2.3c-3.3,1.4-5.1,5.2-8.1,7.3c-2.7,1.9-5.8,2.5-8.5,4.2c-8.2,5.6-15.6,15.6-14.6,30.8
			c0.5,7.6,1.3,14.7,0.4,22.3c-1.1,8.6-4.5,22.3,0,28.1c0.4,0.5,1.4,0.7,1.9,1.5c0.9,1.5,1,3.8,1.9,5c1.3,1.8,4.1,2,5.8,3.5
			c-1.9,17.1-4.2,33.8-2.3,52.4c0.3,3.3,1,6.6,1.5,9.9h39.7c-0.5-10.6,2.2-21.2,1.9-31.1c4,4.2,4.8,10.8,6.9,16.6
			c1.9,5.1,4.4,10,7.2,14.6h53c-1.3-3.4-2.6-7-4.1-10.3C1137.2,1063,1129.7,1049.8,1124.4,1035.8z"/>
	</g>
	<g>
		<path d="M471.4,505.9c-6.4-11.1-11.1-20.1-18.5-31.1c-4.1-6.1-8.6-13.6-12.6-20.6c-5.4-9.6-9.5-20.7-18.5-24.8
			c-3.6-1.6-9.2-1.1-12.2-2.4c-1.4-0.7-1.9-2.4-3-3.2c0-2.3-0.6-3.8-0.8-6.3c-0.2-2.2-0.5-4.4,0.2-6.5c1.1,0.9,3.1,2.5,4.2,1.2
			c-0.8,0-0.9-1-2-0.8c-2.1-3.1-0.2-5.7,0.4-8.9c0.9-4.7-1.9-8.6-5.3-11c-1.3-0.9-3-1.4-4.4-2.4c-1.9-1.4-1.8-4-0.8-6.6
			c1-1.5,1.8-3.2,2.4-4.9c1.3-2.3,2.9-4.6,3.7-6.8c2-5.3-0.4-8-1.6-12.7c-0.9-3.2-0.5-6.7-1.1-9.9c-0.6-3.2-1.7-6.3-3-9
			c-1.3-2.6-3.4-6.2-5.4-7.7c-2-1.5-5.1-2.7-7.9-4c-2.3-1-4.5-2-6.9-1.6c-0.5,0.1-0.7,0.4-1.3,0.4c-2.8-0.2-3.6-1.4-6-1.6
			c-3.2-0.3-6.9,0.6-10,1.4c-3.3,0.9-6.2,2-8.7,3.8c-2.6,1.9-4.4,4.7-6.5,7.8c-4.3,6.1-7,15.1-8.4,23.4c-0.8,5-0.3,9.9,0.3,14.1
			c0.3,2,1.1,3.9,1.9,6c0.6,1.6,1.7,4.6,1.4,6.2c-0.2,1.4-1.8,3-3,3.8c-1.5,1-4,1.2-6.1,2.2c-1.7,0.8-4.2,1.8-5.1,3.8
			c-0.3,0.7-0.1,1.5-0.3,2.2c-0.4,0.8-1.6,1.6-2.3,2.5c-0.8,1-1.6,2-2,3.3c-0.4,1.3-0.9,3.9,0.8,4.7c0-1.9,0.4-5.9,2.6-6.5
			c0.3,2.9-0.5,6-2.2,7.9c-0.9,1-2.4,1.2-3.4,1.9c-1.4,1.1-3.2,2.9-4,4.4c-1,1.9-1.2,4.3-1.9,6.3c-0.3,0.9-0.6,1.6-1,2.4
			c-1.3,0.2-2.6,0.6-3.7,1.1c-9.4,4.9-10.6,16.4-9.4,30.7c0.4,4.6,2.2,9.3,2.1,13.6c-0.1,4.2-1.6,8.4-2.1,12.6
			c-1,8.2-1.2,16.7-0.7,24.5c0.8,13.2,10.5,23.6,12.2,36.3c0.6,4.6-0.8,7-1,10.1c-0.1,1.7,0.6,3.4,0.3,4.9c-0.4,2.7-2.8,4.9-3.5,7.3
			c-0.3,0.9-0.1,2.1-0.3,3.5c-0.2,1.2-1,2.5-1,3.5c-0.1,1.1,0.7,2.3,0.7,3.5c0,1.4-1.1,2.5-1,3.5c0.1,1.9,1.8,3.5,1.7,5.6
			c0,2-1.8,4-1.4,6.3c1.7,0.6,3,1.5,3.5,3.5c1.3,5.6-1.7,9.7-2.4,13.3c-0.2,1.2,0.2,3,0,4.5c-0.5,3.5-2,7-2.1,10.1
			c-0.8,21.4,0.2,41.3,5.9,60.8c2.3,7.9,4.6,15.9,6.3,24.1c1.8,8.3,4.8,16.5,5.6,24.8c0.7,7.6-1.3,15.2-0.7,22.4
			c0.4,4.5,3.6,6.5,4.5,10.1c1.9,7.1-0.9,16.3-2.4,23.8c-1.1,5.4-2.7,11.1-3.1,17.1c-0.9,14-0.1,29.3-1,42.6
			c-0.7,9.7-4.6,16.4-6.6,23.1c-6.2,0.8-11.4,2.4-17.8,3.1c-3.6,0.4-8.8,0.8-10.1,2.8c-2.2,3.2-0.3,7.9-1,13.3
			c13.1,13.9,42.4,4.5,63.6,2.8c7.6-0.6,16.6,0.2,16.8-5.9c6.1-0.3,3.7-6.5,3.5-11.5c-0.4-9,0.3-18.6,0.7-28.3
			c0.4-9.9,0-19.7,0-28.3c0-19.3,1.9-36.9-1-53.5c-0.9-5.3-4-10.1-4.5-14.3c-0.2-1.4,0.5-3.1,0.4-4.5c-0.2-1.5-1.1-3-1.4-4.5
			c-0.6-3.3-0.9-7.3-1-10.5c-0.1-3.4,1.2-6.5,1.4-9.8c0.1-1.7-0.4-3.5-0.3-5.2c0.6-13,5.3-25.4,5.6-37.7c4.8,19.5,6.7,39.2,11.5,58
			c1.6,6.1,3,12.6,4.9,18.5c1,3.2,3.6,6.9,4.5,10.1c2.9,9.6,2.8,20.2,4.5,30.4c1.6,9.3,4.5,18.6,7,28.3c5.6,21.5,10.7,46.6,8,69.5
			c1.8,1.7,4.6,1,5.6,2.8c1.7,3-0.3,5.8-0.4,8.4c-0.1,3.6-0.3,8.7,0.4,11.9c1.3,6.1,8.9,11.5,16.1,12.2c7,0.7,18.1,0.2,19.9-5.2
			c0.4-1.3,0.3-4,0.4-5.6c0.6-12.3-6.2-15.1-9.1-24.1c2.2-0.5,5.3,0,7.3-0.7c1.9-22.5-3.4-42.2-7.7-59.4
			c-5.7-23.2-6.2-49.7-13.6-70.2c-1.6-4.5-2.5-8.8-3.8-13.3c-0.5-1.7-1.9-3.3-2.4-5.2c-0.9-3.3-0.8-7.3-1.4-11.2
			c-2.8-17.2-2.4-37.3-1-57.3c0.5-7.6,1.4-15.2,1.4-22.7c0-13.2-0.1-26.6,0.7-37.4c0.3-4.7,2-9,1.7-13.6c-0.4-8.5-3.7-15.2-7-21.7
			c1.1-4.3-3.3-7.1-4.9-10.8c10.5-11.1,24.8-19.6,38.1-27.6c4.6-2.8,8.8-6.2,13.3-8.7c5.6-3.2,14.5-6.8,16.4-12.9
			C480.4,516.3,474.2,510.7,471.4,505.9z M385.7,402.3c-0.2,0.4-0.5,0.8-0.9,1.2c0.1-0.8,0.1-1.6,0.3-2.3c0.2-0.7,0.4-1.3,0.7-1.9
			C385.9,400.2,386.1,401.3,385.7,402.3z M391.5,389.7c2.9,1.5,0.1,4-2,5c-0.3,0.2-0.8,0.2-1.2,0.3
			C389.7,393.2,391,391.5,391.5,389.7z M392.2,388.3c-0.1,0.3-0.3,0.4-0.4,0.6c0-0.2,0.1-0.5,0.1-0.7c0.1,0,0.1,0,0.2-0.1
			C392,388.2,392.1,388.2,392.2,388.3z M316.5,425.6c1-2.4,2.2-4.8,3.8-6.2c1.1-1,2.5-1.1,3.7-1.9c-0.6,2.8-2.6,3.5-3.9,5.3
			c2.4,0.9,3.7-1.8,5.5-2.7c0.2,0.5,0.2,1,0.3,1.5c0,0-0.1,0-0.1,0c-2.4,0.7-4.3,2.5-6.3,3.1C318.4,425.2,317.4,425.4,316.5,425.6z
			 M345.8,419c0.2-1.6,0.1-3.2,0.3-4.3c0.3,0.4,0.7,0.6,1.3,0.5c0.9-2.1,2.3-4.3,2.5-6.8c0.4-6.1-5.8-10.5-4.1-17.7
			c0.1,0.2,0.2,0.5,0.2,0.7c1.3,3.3,4.1,6.1,4.5,8.4C352.1,407.5,348.9,412.9,345.8,419z M450.5,518.1
			c-17.9,13.1-32.3,29.6-50.3,42.6c-3.7-5.2-4.6-12.5-3.8-21.7c0.3-4.2,1-11.1,2.1-13.6c0.5-1.2,1.4-1.9,2.1-3.1
			c1.7-3.3,3-7.2,4.9-10.8c1.9-3.6,3.5-7.1,4.9-10.8c3.1-8.4,5.5-16.9,8-24.5c10.8,14.6,16.2,34.6,35.3,40.9
			C453.3,518.2,451.2,517.4,450.5,518.1z"/>
	</g>
	<path d="M670.5,892.7c-7.3-4.2-30.3-4.9-31.7-13.2c-0.3-1.9,1.3-4.3,1.4-6.6c0.3-6.3-3.1-8.8-3.8-12.6c-0.6-3.3,0.4-7.1,0-9.8
		c-0.8-5-5-7.5-5.9-11.5c-0.7-3.1-0.1-7.6-0.3-11.5c-0.2-3.9-0.3-7.9-0.4-11.9c-0.2-15.8-3.1-30.2-4.5-43.6c-0.4-3.8-0.5-7-1.4-10.5
		c-0.8-3.2-2-6.5-2.4-9.8c-2.1-14.7-0.2-31.6,1.7-44.3c0.6-4.2,0.5-8.3,1-12.2c0.7-5.1,1.8-9.6,2.1-14.3c0.6-10,0.1-21.1-1.4-30.7
		c-2.2-13.9-2.1-30-3.8-45.3c-1.1-10-3.9-20.2-3.5-29.6c0.1-3,0.9-5.8,0.7-8.7c-0.5-6-2-11.9-2.4-17.8c-0.4-6.5-0.8-12.8-1.4-19.2
		c-1.9-20.6-6.7-40.8-5.6-64.5c5,1.4,12.4,2.9,19.9,3.8c9.7,1.3,22.4,3.3,27.2-1c2.3-2,2.3-5.7,3.5-9.1c0.6-1.7,1.8-2.7,2.1-3.8
		c1.9-7.6-1.2-9.2-4.9-14.3c-2.1-2.9-4-5.9-5.6-8c-4.2-5.6-9.8-9.3-12.9-14.3c-3-4.8-5.3-11.1-9.1-16c-1.4-1.8-3.7-3.9-5.6-5.9
		c-1.9-2-4.3-3.5-6.3-5.2c-4.4-4-8.4-8.7-12.9-10.5c-1.7-0.7-4.1-0.3-5.9-1c-3-1.2-5.1-3.5-7.3-3.8c-8.3-1.2-19.2,2-25.8-1.4
		c0.9-4.2,4.9-8.3,5.2-14.3c3.5-3.2,5.8-7.7,6.3-13.9c1.1-0.5,3.3-1.5,4.7-3.1c0.1,0.1,0.3,0.3,0.4,0.5c0.3-0.3,0.2-0.8,0.1-1.2
		c0,0,0,0,0,0c0.2-0.4,0.5-0.9,0.7-1.5c0.5,0.4,0.9,1.2,1.1,0.6c0-1.4-0.1-2.6-0.1-3.8c0.4-1.5,0.7-3.1,0.9-4.7
		c0.9-1.8,2.2-3.4,2.8-5.3c0.2-0.5,0-0.9,0.2-1.3c0.5-0.9,1.7-1.4,2-2.3c0.3-1-0.4-2.1-0.2-3.1c0.2-1,1.4-1.5,1.6-2.5
		c0.4-1.6-0.9-2.8,0.2-4.5c0.7,0,0.8,0.7,1.4,0.7c0.7-3-1.1-5-2.3-6.7c0.2-0.7,1.6-0.2,1.8-0.9c-1.2-0.9-3.9-1.1-3.1-3.4
		c0.8-0.4,1.4,0,2.3,0c0.2-1.8-2.2-1.1-2.3-2.7c1.1-1,2.7-1.6,3.4-3.1c-0.8,0-1.5-0.1-1.6-0.9c0.2-0.9,1.1-1.1,0.9-2.3
		c-0.5-0.4-0.7,1.2-1.6,1.1c-0.4-0.2-0.6-0.4-0.5-1.1c-3.4,1.4-3.4-3.5-5.4-4.7c0.4-0.4,0.6-0.8,0.5-1.6c-0.8,0-1.3,1.7-2.5,1.4
		c-1.3-0.2-0.6-1.3-1.1-2.7c-0.5-1.4-1.9-3.2-2-4c-2.1,0.6-4.1,0.8-4.3-1.6c-1-0.1-1.1,0.6-2,0.5c-0.8-0.1-0.5-1.3-1.3-1.4
		c-1.2-0.4-2.1,0.6-3.2,0.5c-1.6-0.1-2-1.3-3.1-1.8c-0.8-0.4-1.8-0.1-2.5-0.5c-0.7-0.5-0.2-1.3-1.1-1.4c-0.7-0.2-2.3,0.4-2.7,1.1
		c-1.5,0.4-2.1-1.1-3.4-1.1c-1.1,0-1.7,1-2.7,0.9c-1-0.1-1.3-1.2-2-1.3c-0.7-0.1-1.7,0.9-2.9,1.1c-1.5,0.2-3.3-0.3-5.6,0.2
		c0,2.6-4.4,0.9-5.2,2.7c0.7,0.5,2.8-0.4,2.7,0.9c-2.5,0.5-3.6,2.2-5,3.4c-2.1,1.8-5.3,1.7-7.2,4c0.7-0.2,2.2-0.4,2.2,0.5
		c-0.6,1.3-2.3,1.4-2.9,2.7c0.9-0.1,1.3,0.2,1.4,0.9c-2.2,2-4.8,3.5-5.4,7c2.2,0.7,0.7,2.7,0,4c2.1,1.6-0.7,3.4-0.7,5
		c0,0.8,0.8,1.7,0.9,2.5c0.1,1.4-0.9,2.5-1.1,4.1c-0.1,1.3,0.5,2.6,0.2,3.8c-0.5,1.8-2.2,2.6-2.3,4.5c2.4,1.9,1.6,5.8,2.2,9
		c0.6,3.5,2.7,6.7,1.6,9.3c0.2,0.4,0.8,0.3,0.7,0.9c-0.3,0.8-0.9,1.4-1.3,2.2c0.7,0.2,0.6,1.7,0.4,2.3c1.7,0.5,1.2,3.5,0.9,5.2
		c0.9-0.8,2.1-1.2,3.4-1.5c-1,6.4-2.8,11.7-6.6,15.3c-2.3,2.2-5.1,2-8,3.1c-2.4,0.9-4.2,3.5-6.3,4.2c-5.2,1.7-9.6,0.1-14.3,0.7
		c-4.8,0.6-10.4,2.6-14.3,6.6c-2.3,2.3-3.1,5.6-5.2,7.7c-1.3,1.2-3.1,1.7-4.2,3.1c-0.9,1.1-2.7,5.3-3.5,7c-0.6,1.2-1.7,4.3-1.7,4.9
		c0,1.1,1.2,2.5,1.4,4.2c0.2,2-0.7,4.3-0.4,5.9c0.7,3.2,5,5.1,4.5,9.1c4,2.5,8.6,4.4,13.6,5.9c-0.1,2.6,1,4.4,2.4,6.3
		c-1.9,4.9,1.6,9.7,3.1,14.3c0.8,2.4,0.8,5,1.7,7.3c1.4,3.6,4,6.7,5.6,10.5c4.9,12,9.5,31.8,7.7,49.2c-0.4,3.8-1.9,8-2.8,11.9
		c-2.9,12.4-5.2,23.9-6.6,37.3c0.3,1.3,1.5,1.6,1.7,2.8c0.3,1.4-0.5,4.9-0.7,7.7c-1.5,18.7-4.6,35.9-5.2,54
		c-0.4,10.9-0.8,21.6-1.7,32.4c-1.4,15.8-3.5,31.4-4.9,46.4c-0.5,5.6,0.3,11.1-0.4,16.7c-0.7,6.2-4.2,10.4-6.3,15.3
		c-1.8,4.3-2.7,9.2-3.8,13.9c-2.2,9.4-4.3,18.9-6.6,28.6c-3.4,14.4-3.9,31-5.9,46.7c-0.7,5.1-2.8,9.9-3.1,14.6
		c-0.4,5.1,1.7,12.8,0.7,16.4c-0.4,1.5-3.2,2.4-3.8,4.9c-0.9,3.6,0,10.5,0,16c-0.1,10.6-1.1,18.2,7.7,18.8
		c-1.7,4.1-7.4,15.5-4.9,21.6c1.8,4.3,12.7,6.4,19.2,7.3c6.9,1,18.4,0.7,21.6-4.2c1.4-2.1,0.9-4.8,1.4-8c0.9-5.8,0.9-8.2-0.7-13.6
		c8,1.5,14.4-0.7,16-5.9c1.6-4.9-1.9-11.3-1-17.8c0.2-1.7,1.2-3.4,1.4-4.9c0.4-2.9,0.3-7.3,0-10.5c-0.2-1.7-1.1-3.2-1-4.5
		c0-1.4,1.1-3.5,1.4-5.2c4.2-21.6,7.2-44,10.5-65.9c1.3-8.4,1.2-16.8,2.8-25.1c3-15.8,9.8-27.5,15-40.4c7.4-18.3,10.3-41,12.9-63.5
		c1.3,15.1,3.3,30.8,4.5,47.4c1.1,15.1,5.9,30.2,7,45.3c1.1,15.1-1,30.2,0.3,45.3c0.6,6.9,1.8,13.5,2.8,20.6
		c1,7.6,2.6,16.2,1.4,22.3c-0.3,1.7-1.7,3.2-2.1,4.9c-0.5,2.4,0.1,5.6-0.3,8.4c-0.3,1.9-1.4,3.3-1.4,4.9c0,1.6,1.1,3.3,1.4,5.6
		c0.6,5-0.7,11.4,0.3,14.3c0.5,1.4,1.9,2,3.5,3.5c3,2.8,5.6,5,10.8,5.2c0,3.7-0.9,8.9,0,13.6c2.9,1.5,7.3,2.4,11.9,3.1
		c7.6,1.2,14.6,3.1,19.2-0.7c8,5.6,20.8,7.1,33.8,8.4c10.3,1,21.5,1.6,30-1.4C679,901.7,677,896.5,670.5,892.7z"/>
	<g>
		<path d="M288.3,452.2c-0.2-2.4-3-4.2-4.6-5.7c-2.4-2.3-1.2-3.6-1.4-6.5c-0.1-1.4-0.8-2.5-0.7-3.9c0.1-2,0.6-4,0.6-6
			c0.3-7-6.6-11-10.3-16c-4.4-5.9-6.3-13.3-9.5-19.9c-1.6-3.4-3.4-6.7-4.6-10.2c-1.2-3.3-2.2-6.1-5.1-8.2c-3.4-2.4-7.1-4.1-10.2-6.9
			c-2.7-2.4-5.3-5-9-5.6c-2.6-0.4-6.2-1.3-8.8-0.6c-2,0.6-3.5,1.5-5.7,1.6c-2.5,0-4.9-0.7-6.7-2.5c1.6-2,5.2-0.8,7.3-2
			c3.1-1.8,3.9-3.4,3.6-7c-0.3-3.4,0.3-5.8,1.6-8.9c0.6-1.6,1.2-3.2,1.6-4.8c0.4-2.1-0.2-4.1,0.6-6.1c1.4-3.6,1.3-6.9,0.7-10.7
			c-0.2-1.6-0.6-3.3-0.3-4.9c0.2-1-1-2.9-0.1-3.4c0.6-0.3,1.6-0.3,1.5-1.3c-1-0.3-1.5-0.9-1.2-2c0.9-2.8,2.5-4,1.6-7.2
			c-0.9-3.2-2.3-6.3-3.3-9.5c0-0.1,0-0.2-0.1-0.2c0.7-0.4,1.4-0.6,2.3-0.6c0.8-0.1,0.3,0.8,1,0.7c0.6,0,0.4-1.1,1.2-0.7
			c1,0.2,1,1,1.6,1.4c0.4-0.7,0.7-1.4,0.8-2.4c-1.6-0.8-1.1-1.6-1.1-3c0-1-1.6-2-0.4-3c-1.3-0.5-2.5-1.1-2.5-2.5
			c-0.9,0.1-1.2-0.2-1.9-0.5c0-0.6-0.2-1-0.3-1.5c-1.3-0.1-2.1-0.6-2.1-1.5c0.2-0.6,0.6-0.8,0.7-1.5c-2.2,0.2-4.7,0-5-2.2
			c-1.3,0.6-1.8-1-2.9-1.5c-0.3-0.1-1.1,0-1.6-0.1c-2.6-0.6-6.1-2.5-8.2-2.6c-0.3,0-0.6,0.1-0.9,0.2c-2.4-0.9-4.9-1.6-7.5-2
			c-0.5-0.7-0.2-2.1-1.1-2.3c0.2,0.5,0.9,1.4,0.2,1.9c-2.6-1.3-7-1.6-9.6-0.3c-0.6-0.9-1.9-1.4-3.6-1.6c0.2,0.9,1.2,1.1,1.2,2.1
			c-0.4,0.1-0.7,0.1-1.1,0.2c-1.3-0.3-2.5,0-3.4,0.4c-0.1,0.1-0.2,0.3-0.2,0.4c-1.2,0.3-2.3,0.8-3.5,1.2c-1.2-0.1-2.4-0.3-3.5,0
			c-0.4,0.2-0.2,1.3-0.8,1.2c-1.5,0.1-2.7,0.2-3.6,0.6c-1.5,0.7-1.6,2-3,3.3c-2.7,2.5-9.1,0.8-10.9,5c1.1,0,2.6-0.2,2.8,0.9
			c-1.9,1.3-4,2.2-5.3,4.4c-0.2,0.6,0.7,0.4,0.3,1.2c-1.5,2.3-4.6,2.3-5.2,5.9c0.7,0,1,0.7,1.4,1.4c1.7-1.7,3.2-5,5.9-4.6
			c-0.5,1.9-1.6,3.5-2.1,5.5c-0.8,3.2-0.9,6.7-1.2,9.2c-0.3,2.6-1.1,4.8-0.9,6.7c0.6,6.2,2,9.8,4.6,14.2c2.5,4.3,8.1,8.1,4.3,13.6
			c0.5-0.1,1,0.1,1,0.7c-0.5,1.1-1.5,1.5-2.3,2.3c2.4,0.6,2.9-1.6,4.8-1.7c-0.1,1.1-0.5,1.6-0.7,2.6c1-0.1,1.2,0.5,1.3,1.1
			c-0.7,2-1.6,3.9-2.3,5.9c-0.7,1.8-1.8,5.2-4.3,4.9c-3.7-0.5-9.5-5.4-12.7-1.9c-1.6,1.7-3.3,4.1-4.1,6.3c-0.9,2.6-1.2,3.8-3.7,4.8
			c-2.1,0.8-4.4,1.5-6.6,2.1c-2.6,0.7-4,0.4-6.5,0c-3.3-0.5-7.2,0.9-10.3,1.9c-3.7,1.2-6.7,3-9.7,5.4c-3.6,2.8-7.6,5.1-11,8
			c-3.3,2.8-4.7,7.7-6.9,11.3c-2.5,4.1-4.8,8.3-8.4,11.6c-3.6,3.3-7.6,6.4-11.5,9.2c-3.6,2.6-7.7,5-10.4,8.7
			c-1.7,2.3-4.8,7.3-2.5,10.1c-0.8,2.3-3,3.8-3.9,6.1c-0.4,1.1-0.2,2.3,0.5,3.2c-1.4,1.3-2.2,2.9-3.4,4.3c-2,2.4-4.9,2.1-7.1,3.9
			c-1.4,1.1-1.6,3.8-1.9,5.4c-1,4.9-1.8,10.1-1.2,15.1c0.8,6.8,3.1,13.3,6.2,19.4c5.8,11.7,14.5,21.7,22.8,31.7
			c4.1,4.9,8.1,9.9,11.7,15.1c1.8,2.7,3.5,5.4,5,8.3c0.8,1.5,1.8,3.2,2.3,4.9c0.4,1.6,0.5,3,1.5,4.3c3.2,4.3,7.3,8.1,11.7,11.1
			c2.8,1.9,5.7,3.6,8.4,5.6c0.8,0.6,3,1.9,2.6,3c-0.6,1.3-1.8,2.4-0.9,3.9c3.8,1.3,8.7,0,8.2-4.9c2.7,3.2,8.1,2.4,9.3-1.8
			c0.6-2.2,0-4.3-1.7-5.8c-1.4-1.2-4.1-2.3-4.6-4.3c1.8,0.4,3.7,1.7,5.2,2.8c2.1,1.5,2.9,2.6,2.6,5.3c-0.9,7.2-2.8,14.2-2.8,21.5
			c0,7,0.3,14,0,21c-0.3,8.1-0.6,16.2-0.9,24.4c-0.3,8.4-0.8,16.8-1.3,25.1c-0.4,7.8,0.4,15.5,0.9,23.2c0.4,6.3,1.1,13.4-1.7,19.3
			c-2.8,6-0.2,12.7,0.9,18.7c0.6,3.2,0.7,6.5-0.1,9.7c-0.4,1.7-1,3.5-1,5.3c-0.1,1.9,0.6,3.7,0.3,5.7c-0.5,2.7-2.4,4.6-3.3,7
			c-0.9,2.7-1.3,5.6-1.5,8.4c-0.6,6.5-0.5,13-0.6,19.4c-0.2,7.9-1,15.9-0.9,23.8c0.1,6.3,2.4,14.7-1,20.5
			c-3.2,5.4-3.5,12.4-3.7,18.6c-0.1,3.3,0,6.4,1.1,9.6c1,2.9,3.3,6.7,2.9,9.8c-0.4,3.5,0.4,6,1.2,9.4c0.7,2.8-0.2,4.8-1.4,7.3
			c-1,2.1-2.4,4.9-1.1,7.1c0.3,0.5,0.7,1,1.2,1.3c0.9,0.7,0.1,1.4-0.4,2.3c-0.8,1.5-1.7,3-2,4.8c2.5-2.1,3.5-5.7,6-7.8
			c-0.7,3.4-1.3,6.8-2,10.2c-0.4,1.7-0.6,3.5-1.2,5.1c-0.5,1.6-1.3,2.9-1.4,4.6c-0.1,3.1,1,6.1,0.8,9.2c-0.2,3.1-1.1,6.2-0.8,9.3
			c1.1,9.7,17.9,8.3,24.6,8c4.5-0.2,9.2-0.5,13.6-1.6c2.1-0.5,4.8-1.3,6.3-3c1.9-2.3-0.8-4.7-0.7-7.1c0.1-1.3,0.6-2.5,0.9-3.8
			c0.4-1.5,0.3-3.1,0.3-4.6c0-3.6-0.2-7.2-1.2-10.6c-0.4-1.4-1.4-2.4-1.7-3.9c-0.4-1.9-0.6-3.7-0.8-5.6c-0.3-3.7-0.4-7.4-1.3-11
			c2.9,3.2,3.9,8.3,6,12.3c2.6-2-1.8-6-2.2-8.6c1.5-1,3,2.5,4.9,1.1c1.1-3.7-1.6-7.7-3.5-10.6c-0.7-1.1-1.7-2.3-2-3.6
			c-0.4-1.4,1.2-3,1.9-4c2.1-3,1.8-7.3,2-10.8c0.3-4.5,0.9-9,1.3-13.5c0.7-9.4-0.1-18.7,0.3-28.1c0.4-9.3,2.6-18.3,4.5-27.3
			c1.5,7.6,3.5,15.1,4.8,22.8c0.7,3.8,1.2,7.7,1.4,11.6c0.2,4-0.6,8,0.3,11.9c1.4,6.3,6.3,13.2,4.9,19.8c-1.6,7.5,3,14.2,2.9,21.6
			c0,1.8-0.3,3.5-0.1,5.3c0.2,1.6,1.1,3,1.7,4.5c1.3,3.2-0.7,5-1.8,7.9c-1.6,4.1,4.2,5.1,7.1,5.7c10.5,2.3,21.4,2.2,31.9,5
			c3.7,1,7.2,2.4,10.9,3.3c4.3,1,8.8,1.1,13.2,0.6c8.9-1,18.2-3.3,26.4-6.9c3-1.3,7.7-2.4,8-6.3c0.2-3.5-0.9-7.9-4.2-9.6
			c-3.8-1.9-8.2-2.2-12-3.9c-1.9-0.9-3-2.6-5.1-3.4c-1.8-0.7-3-1.3-3.5-3.3c-0.1,3.1-4.1,0.8-4.9-0.7c0.9-1.8,3,0.1,4.1,0.4
			c-0.9-3-3.7-2.6-6.2-2.9c-3.4-0.4-5.6-3.8-7.7-6.1c-2.6-2.8-5.6-4.3-8.9-5.9c-1.1-0.5-2.4-1.1-3.1-2.2c-0.5-0.8-1.2-2.3-2.4-1.9
			c3.7-5.4,0.1-14-0.1-20c-0.3-8.2,0.7-16.4,1.3-24.7c0.6-7.9,0.8-15.9,1-23.9c0.1-7.7-0.9-15.6-0.2-23.4c0.8-8.1,3.2-16,5.5-23.7
			c2.4-8.1,4.6-16.2,6.6-24.4c2-8,2.4-16.2,3.3-24.4c0.8-7.9,1.6-15.7,2.4-23.6c1.5-15.9,3-31.8,5.2-47.6c1-7.5,2.3-15.8-0.6-23.1
			c-1.1-2.7,0.5-6.3,0.5-9.1c0-3.9-0.7-7.7-1.1-11.5c-0.6-6.6,2-13.3,0.6-19.7c-0.6-2.8-4.3-11-0.6-12.7c2.1-1,4.4-1.3,6.5-2.4
			c2.5-1.4,4.5-3.3,6.2-5.6c3.5-4.6,5.3-10.3,7.2-15.7c2.1-6.1,4.4-11.9,7.7-17.5c3.6-6.1,7.3-12.3,10-18.9
			c2.7-6.8,2.6-13.9,2.6-21.1C287.8,459.2,288.5,455.5,288.3,452.2z M115.7,883.1c1.1-2.4,1.2-5.7,4.1-6.3
			C119,879.5,117.8,881.8,115.7,883.1z M115.8,572c-0.6-0.3-1.2-0.7-1.7-1.2c-1-0.9-2.1-2.3-2.2-3.7c2,1.2,4.2,2.3,5.2,4.5
			C116.2,571.7,117,572.6,115.8,572z M131,549.5c-2.5-0.1-3.1-2.1-4.1-3.7c2.3-0.3,3.5-1.8,6-1.9C132.4,545.9,131.2,547.2,131,549.5
			z M140.3,529.8c0.8,0.4-0.7,2.4-1,3c-0.7,1.7-0.7,1.6-2.2,1c-0.7-0.3-2.2,1.9-3,2.4c-4.6,2.9-10.8,2-15.9,3.1
			c-2.2,0.5-4.1,2.9-6.5,2c-2-0.8-4-1.7-5.9-2.6c-1.9-0.9-2.9-1.6-3.4-3.8c-0.8-3.5-2.4-6.3-4.3-9.4c-3.9-6.5-6.9-13.5-9.2-20.7
			c-2.4-7.4-5.1-14.7-8.2-21.8c-1.3-2.9-1.9-6.7-4.3-8.9c-2.1-2-5.3-3.1-6.9-5.7c3-1.8,6-4.1,9.6-4.7c2.1-0.4,3.1,1.1,5.1,1.4
			c1.6,0.2,2.9-1.1,3.7-2.3c0.8-1,1.5-2.3,2.7-2.9c1.5-0.9,2.8,0.1,4.3,0.3c3.7,0.6,5.5-3.8,7.5-6c1.4-1.5,3.2-2.6,4.6-4.1
			c1.6-1.6,1.9-3.8,3.2-5.6c1.1-1.5,2.6-2.5,3.7-3.9c0.5-0.6,0.9-1.4,1.1-2.2c0.2-1.3,1.2-0.7,1.4,0.3c2.8,9.6,5.6,19.2,9.8,28.2
			c1.4,2.9,4,5.7,4.7,9c0.3,1.6,0.3,2.9,1.4,4.3c1.3,1.6,2.1,2.9,2.5,5c0.7,3.6,0.6,7.2,0.9,10.9c0.3,4,1.1,8,2.1,11.9
			c0.9,3.4,2.1,6.8,3.4,10.1c0.5,1.3-0.7,3-1.1,4.4c-0.5,1.9-0.8,3.8-1.3,5.7C138.6,529.7,139.2,529.3,140.3,529.8z M255,471.8
			c-1.7,6.7-2.5,13.7-2.2,20.6c0.2,5,0.2,9.9-1,14.8c-0.3,1.3-2.7,9.6-5.5,6.9c-1.2-1.2-1.5-3.8-1.6-5.4c-0.2-2.8,1-5.3,1.4-7.9
			c0.4-2.5-1.5-4.8-1.8-7.2c-0.2-1.7,0.3-2.9,1-4.4c0.8-1.5,1-3,1.3-4.7c1-7.2,1.1-14.5,2.2-21.7c0.2-1.5,0.2-2.9,0.4-4.4
			c0.1-0.8,0.3-1.6,0.7-2.4c0.5-1.1,1.2-0.7,2.2-0.6c3.2,0.3,6.9,0.4,9.7,2.1C258,461.3,256.2,466.8,255,471.8z"/>
	</g>
	<g>
		<path d="M843.1,466.5c-1.2-1.6-3.9-3-6-4.7c-2-1.6-4.1-3.6-5.7-5.4c-7.3-7.9-15-14.1-22.1-21.8c-1.9-2.1-3.9-4.3-5.9-6.4
			c4.2,1.2,7.1,5.4,11.6,5.1c-1.2-2.7-4.5-2.8-5.6-5.5c0.8-0.1,1.6,0.3,1.7-0.7c-2.7-3.8-8.1-6.6-9.7-12.8c2.1,1.8,3.2,5,6.4,5.4
			c-0.7-2.9-3.3-5.5-4.7-8.8c-1.5-3.5-2.8-7-4.3-9.6c1.9,1,3.6,1.8,5.1,3.3c2.6,2.6,3.1,7,6.3,8.8c0.4-1.9-0.9-3.7-1.7-5.3
			c-0.9-1.8-1.8-3.8-3-5.1c-2.8-3-8.5-4.6-11.5-6.6c-3.4-2.4-5.9-5.9-8-9.7c-1-1.8-1.2-4.2-2.6-6.2c-0.7-1.1-2.2-1.5-3.2-2.5
			c-1.3-1.2-2.4-3.1-3.9-4.5c-4.4-4-7.7-6.5-9.7-12.9c0.6-0.1,1.2-0.1,1.8-0.2c1.8-2.7,5.1-5.7,6.7-8.9c0.7-1.4,2-4.6,1.6-5.9
			c-1.4-4.7-12.6-0.2-15.2,1.1c-7.1-8.9-8.3-32.4-19.7-35.3c-5-1.3-8.3,1.9-11.7,4.1c-4.4-3.1-10.4-0.1-13.7,2.5
			c-5.8,4.4-8.1,9.1-9.3,17.5c-0.8,5.6-1.8,11.7-1.6,16.6c0.2,3.4,1.6,7.3,0.1,8.8c-3.7,1-13.3,1.6-13.3,5.8c0,3,6.5,5.8,9.4,6.6
			c2.2,0.7,4.9,0,5.2,2.2c1.1,8.2-2.3,13.3-5.9,17.6c-1.1,1.4-4.1,3.1-2.7,5.8c2,0.3,2.6-2,4.4-2.6c-2.5,4.8-4.5,11-4.8,17.6
			c-0.9,0.1-1.7,0.2-2.4,0.4c-9.5,2.1-14.3,5.9-17.6,14c-3.4,8.5-0.6,16.7,0.8,25.9c1.1,7.7,0.6,16.5,0.1,25.2
			c-0.5,8.8,0.3,17.7-0.6,25.6c-0.6,4.9-2.7,6.9-4.2,10.5c-1.8,4.3-2.6,10-3.7,15.3c-2.3,11.2-2.6,22.5-3.1,35.4
			c-0.2,4.6-0.8,9.4-1,13.2c-0.1,1.4,0.3,3.2,0.1,4.5c-0.2,1.8-1.3,3.8-1.2,5.2c0,1,0.6,2.4,0.8,3.4c1.3,9.6-0.9,21.9,0.2,31.8
			c0.2,1.7,0.7,3,0.8,4.5c0.1,1.7-0.4,3.6-0.2,5.2c0.2,1.6,1.5,3,1.9,4.4c0.9,3.1,0.7,6.6,3,8.9c1.1,0.8,1.6-1.2,2.7-1.5
			c2.2,2.3,3.4,5.7,6.1,7.4c0.9-1.5,1.7-3.1,1.9-5.2c0.8-0.1,2.6,1.7,2.8-0.1c1-3.2-3-3.6-1.6-7.6c-1-1.4-2.6-2.1-3.9-3.7
			c-1.3-1.7-3.2-4.5-2.6-6.5c0.4-1.5,3.6-1.9,4-3.9c0.7-3.1-0.6-3.9-1.6-6.9c1.6-3,0.2-6.5,1.1-10.1c0.3-1.4,1.2-2.7,1.6-3.9
			c1.2-3.6,0.9-6.4-1.3-8.6c-0.9-1-3.2-1-3.5-3c1.8-0.1,3.9,0.1,4.8-0.8c0.6-4.2,2.3-7.5,3.5-10.8c1.4-4,2.6-7.8,3.8-11.5
			c0.5-1.5,0.8-4.3,2.6-4.6c-0.1,6.6-2.5,12.6-3.6,19.1c-1.1,6.6-1.8,13.6-2.5,21.2c-0.8,9.9-1.5,23-0.4,34.2c0.4,3.8,0,8.6,1,11.4
			c0.6,1.5,3.6,3.1,4.3,4.7c0.4,0.9,0.5,2.9,0.8,4.5c1,4.5,2,9.2,3.2,13.4c3.9,14.5,6.3,29.8,10,45c0.9,3.6,2,7.4,1.7,9.6
			c-0.6,3.6-5.2,7.3-7.3,10.9c-8.7,14.8-12.5,35.1-10.4,58.7c0.9,9.8,2.1,20,2.6,30.4c0.3,5.2,0.3,10.8,0.5,16.2
			c0.2,7.6,1.1,16.2-0.8,21.5c-0.6,1.5-1.6,4.1-1.9,4.5c-1.2,1.6-3.9,2.2-5.1,4c-0.5,0.7-0.5,2.1-0.9,3.1c-1,2.6-2.2,4.5-1.2,7.6
			c-4.2,5,1.1,12.4,3.6,16.1c0.6,1,1.7,2.1,2.2,3.1c1.5,3,2.1,10.3,4.9,12.3c2.6,1.9,10.7,1.9,14.9,2c8.4,0.2,19.4-0.5,25.2-3.2
			c-0.6-2.8-3-6.2-4.1-8.5c-0.5-1.1-0.6-2.6-1.1-3.4c-1.6-2.5-4.9-4.2-8.8-3.5c-2.1-1.9-2.9-5.2-4.4-7.8c1.4-2.1,0.9-4.3-0.2-6.2
			c-1-1.7-2.5-2.2-3.2-3.4c-3.3-5.1-2.3-14.8-2-22.4c0.4-15.4,4.1-27.9,6.7-41c3.4-17.2,10.5-34.1,10.9-52.9
			c0.1-3.4-0.5-7.6-0.3-11.1c0.3-6.1,1.7-10.2,3.4-14.3c2.6-6.3,5.1-12.7,6.3-19.9c3.1-18.5,0.6-41.4,1.3-61.6
			c0.1-4.1-0.1-13.6,6.2-11.3c2.4,9.3,1.6,19.3,1.9,30c0.2,6.3,0.1,12.5-0.1,18.7c-0.4,9.2-1.1,18.8,0.1,27.7c0.4,3,1.5,5.9,1.3,8.6
			c-0.2,2.6-2.3,5.6-3.5,8.7c-3.6,9-6.6,19.4-7.1,30.3c-0.6,12.6,2.2,25.8,3.2,39.3c1,13.6,2.4,27.8,1.9,41.1c0,1-0.1,2.3-0.2,3.5
			c-0.5,3.7-3,7.6-2.8,10.8c0.1,2.4,1.6,3.4,2.2,5.8c-2.7,4.8,0,12.3,1.5,16.9c-5.3,5.5,2.9,8.2,4.5,11.3c0.8,1.6,0.7,3.4,0.9,5.5
			c2.6,2.6,7.8,5,13.3,4.8c5.3-0.2,15.5-3.9,16.7-6.7c0.5-1.1,0.4-3.4,0.2-5.5c0-0.1-0.7-0.3-0.7-0.7c-0.3-3.2-0.5-3.6-2.6-5.1
			c-2.1-1.6-5-2.8-6.7-5c-0.7-0.9-1.3-2.7-2.2-4.1c-0.8-1.4-1.6-2.8-2.5-4.1c-2.3-2.9-5-4.2-5.7-7.1c-0.4-1.7,0.3-4,0.2-6.2
			c-0.1-1.8-1.3-3.9-1.6-5.8c-1.4-9,2.1-17.6,4.1-26.4c1.8-7.7,3.2-15.5,4.9-23c4.1-18.7,10.2-37.2,8.2-61.1
			c-0.4-5.2-1.9-10.4-1.5-15.2c0.3-3.3,1.6-5.8,2.2-9.1c1-6.5,1.6-11.6,3.3-17c0.9-3,1.4-6.2,2.1-9.4c2.8-12.5,6.1-23.9,9-36.6
			c1.1-5.1,2.8-17.5,4.3-18.5c2-1.3,3,1,5.6,0.9c2.7-0.1,3.4-1.8,5.1-2.2c0-15.5,0.1-28.5-2.6-42.5c-1.1-5.6-3-11.4-4.7-17.8
			c-1-3.9-1.6-9.5-2.5-14.5c-0.4-1.9-1.4-4-1.2-4.8c0.3-1.2,2.6-1.9,2.7-3.5c0-0.4-1-1.4-1.5-2.7c-0.4-1.1-0.6-2.7-0.8-3.4
			c-3.1-10.3-8.5-16.9-8.5-29.1c2.1-1.8,5.3-2.4,8.2-4c4.3-2.4,8.4-6.7,12.8-10.4c8.9-7.4,17.4-13,25.3-21.1
			c3.7-3.8,10.5-7.2,12.8-10.8C845.8,476,845.6,469.9,843.1,466.5z M687.4,874.7C688.4,873.7,686.4,875.8,687.4,874.7L687.4,874.7z
			 M741.8,880.4c-1.6-0.2-2.1-3.9,0.2-3.5C742.4,878.4,741.5,878.9,741.8,880.4z M704.8,526.6c-1.5,5.1-3.2,10.1-6.2,12.6
			c2.1-7,2-14.1,3.5-21.2c0.6-2.6,1.9-5.1,2.5-7.7c0.8-3.1,1.2-6.2,1.4-9.7c1,0.9,1.3,2.7,1.5,3.8
			C708.7,512.4,706.7,520,704.8,526.6z M792.9,487.7c3.3-5.8,6.4-11,4.9-20.5c3.8,2.5,7.9,4.7,11,8
			C802.6,478.6,798.3,483.7,792.9,487.7z"/>
	</g>
	<g>
		<path d="M1004.4,465.6c-0.1-1.4,0.3-3.5,0.4-5.4c0.1-1.5,0.5-3.3,0.4-4.3c-0.3-2.4-1.9-5-2.8-7c-1.7-3.9-3.8-6.9-4-12.8
			c-0.1-2.4,0.6-4.6,0.8-7c0.2-2.7-0.2-5.4,0-7.7c0.4-4.6,1.9-8.2,1.2-13.9c-0.6-5-2.7-9.1-4.8-12.8c-3.8-6.6-8.8-10.8-15.2-15.5
			c-4.7-3.4-9.3-6.1-14.8-9.3c-2.5-1.5-5.5-2.4-8-3.9c-2.5-1.5-2.9-3.9-6.4-5.4c-2-0.9-4.7-0.4-6.8-1.9c-2-1.4-4.4-9.1-4.4-12.8
			c0-2.3,1.3-6.9,2.4-8.5c0.8-1.3,2.4-2.3,4-3.3c0.6,0.8,1.3,1.7,1.8,2.6c0.6-1.8,1.1-3.7,1.8-5.6c0.3-0.3,0.6-0.7,0.8-1.1
			c0.4-0.7,0.7-1.6,1-2.6c0.3-0.5,0.6-1,1-1.4c0.7-1,2.4-1.5,2.9-2.6c1.1-2,0.3-4.4,0.3-6.5c0.1-2.3,1.5-4.4,1.9-6.8
			c1.1-5.9-1-10.1-0.7-15.6c3-3.6-1.7-6.9-2.3-10.1c0.7-1.3,2.3,1.2,2.3-0.3c-2-3.8-6.3-5.1-8.1-9.1c0.3-0.7,2.3,0.2,2.6-0.6
			c-5.9-2.6-11.5-5.4-17.5-7.8c-0.1-0.8-0.5-1.2-0.3-2.3c-5.5-0.6-12.1,1.7-14.3-3.2c-2.7,0.5-4.8-1.2-8.4-0.6
			c0.6,2.1-1.6,1.5-0.3,3.9c-0.9,0.2-2.3,0.2-3.6,0.6c-4,1.5-9.7,5.2-7.5,7.5c-6.3,2.8-10.9,9.5-13.3,15.6
			c-2.3,5.8,0.7,13.2-2.9,18.2c1.5,0.8,0.9,3.2,0.3,4.5c2.3,2.4,2.5,7,3.6,10.7c0.5,0.1,0.9,0.2,1.4,0.3c-0.6,3.4-1.3,6.7-0.5,10.6
			c0.3,1.5,1.9,3.8,2.4,5.8c0.6,2.6,0.7,6,1.6,9.3c0.6,2.4,2.6,7.2,2.4,8.1c-0.2,0.9-3,3.2-4.8,4.3c-2.9,1.7-6.9,2.5-10.4,3.9
			c-1.7,0.6-3.2,1.7-4.8,2.3c-4.3,1.7-6.2,2.3-10,4.6c-1.5,0.9-3.7,1.8-4.8,2.7c-0.8,0.6-1.3,2.2-2.4,3.1c-1.1,1-2.7,1.4-3.2,1.9
			c-0.9,1-3.3,5.9-4,7.7c-1.3,3.4-2.3,8.6-2.4,12c0,2,0.8,3.9,0.8,5.8c0,1.5-0.6,3.1-0.8,4.6c-0.3,1.7-0.1,3.5-0.4,5
			c-0.4,2.1-2,3.9-2.4,6.2c-0.6,3.9,0.3,8.4,0.4,13.2c0.4,12.5-0.2,27.2,0.8,39.1c0.5,6.4,3,12.6,3.2,18.2
			c0.3,5.9-2.1,11.1-2.8,17.4c-0.8,7.8-0.1,17.2-1.2,25.2c-0.3,2.6-1.5,5.8-0.8,7.7c0.6,1.6,1.7,1.4,3.6,2.7
			c-3.3,8-1.1,19.5-2.8,29.8c-0.5,2.7-1.5,5.4-2,8.1c-0.5,2.9-0.6,6-1.2,8.9c-1.3,6.5-4.5,13-5.2,19.7c-0.3,2.8,0.2,5.7,0,8.5
			c-0.4,4.3-2,8.7-2.8,13.2c-0.8,4.8-0.7,9.7-1.2,14.7c-1.3,12.3-6.1,23.4-3.2,37.5c0.6,2.7,2.2,4.9,2.8,7.4
			c1.1,4.6,1.5,10.3,1.2,15.1c-0.3,5.5-4.1,11.5-4.4,17.4c-0.1,2.1,0.7,4.4,0.8,6.6c0.5,9.2-0.1,19.3,0.4,28.6
			c0.7,13,3.6,25.9,4.8,39.1c0.4,4.8,1,9.8,0.4,13.9c-0.6,4.3-3.9,8.8-4.4,13.2c-0.4,3.9,1.1,9.1,2,12.4c0.4,1.6,0,3.3,0.4,4.3
			c1.4,4,7.1,7.3,7.6,13.9c0.4,5.8-3.7,10.2-4,15.5c-0.1,2.1,0.6,3.7,1.2,5.4c0.5,1.3,1.7,2.8,2,4.3c0.3,1.5-0.2,4.3,0,6.6
			c0.2,2.1,1.2,4.2,0.8,5.4c-0.4,1.3-5.5,4-8.4,5.4c-6.8,3.3-12.9,5.3-20,7.7c-6.5,2.3-12.5,3.1-12,11.6c0.3,2.3-2.6,1.4-1.6,4.3
			c11.9,3.3,27.5,3.4,42.7,2.7c5-0.2,10.1,0.1,14-1.2c2.8-0.9,5-3.6,7.6-3.9c3.9-0.5,8.4,1.8,12.8,1.9c7.2,0.3,13.2-1.5,19.2-2.7
			c0.3-2.2,1-6.3,0.4-8.9c-0.5-2.1-1.2-2.1-2-3.5c1-1.2,0-2.2,0.4-3.5c0.3-1,1.2-1,1.2-2.3c0-2.5-2.1-4.6-2-7c0.1-2.6,3-5.2,3.2-7.4
			c0.2-1.8-1.2-3.8-1.2-5.8c-0.1-2.8,1.6-5.8,1.6-8.1c0-2.5-1.4-5.3-2-8.1c-1.7-7.9-2.2-17.3-3.2-25.9c-2.1-17.7-4.1-35.4-3.2-54.6
			c0.6-11.5-0.8-23.8-1.6-36.4c-0.4-5.9-2.2-11.4-2.4-17c-0.2-4.5,0.8-9.8,2-13.9c0.6-2,2.2-3.8,2.8-5.8c2-6.3,2.4-13.2,3.6-19.7
			c3.4-19,8.9-39.2,11.6-58.4c1.7,5-0.1,10.6-0.4,16.3c-0.3,4.3,0.3,8.7,0,13.2c-0.4,6.3-0.7,13.2,0.8,20.1c0.5,2,2,4,2.4,6.2
			c0.8,3.8,0.6,8.2,1.2,12.4c0.5,3.9,1.4,7.8,1.6,11.6c0.3,5.6-0.5,11.6,0,17.4c0.5,5.7,0.9,11.6,0.8,17c0,1.8-0.8,3.7-0.8,5.4
			c0,1.4,0.7,2.9,0.8,4.3c0.5,9.7-0.4,19.7-0.4,29.4c0,27.1,0.8,55.3-3.6,78.6c-0.8,4.2-2.1,7.3-0.4,12.4c1.5,4.4,6.7,8.2,5.6,15.5
			c3.1,0.3,5.1-1.2,7.6-0.4c1.1,6.7-0.9,11.6,0.4,16.6c0.4,1.7,2,3.2,2.4,5c0.3,1.7-1.3,4.1,0,7c2.2,5,12.8,4.6,20.8,4.6
			c9.5,0,22.1,0.7,21.2-8.1c-0.1-0.8-1.2-1.6-1.2-2.7c0-1.9,1-3.4,0.8-5c-0.5-3-3.7-6.1-6-8.9c-2.4-3-4.5-5.9-6.4-8.1
			c1.2-1.9,2.9,3.3,5.6,1.2c2.2-5.6,0.1-10,1.2-15.9c0.9-4.7,5.8-7.4,6-13.2c0.1-3.8-2.5-6.7-3.6-10.5c-4.3-14.7-1.7-33.3-0.4-50.7
			c0.4-5.3,1.7-10.5,2.4-15.9c1.2-8.6,0.8-17.6,1.2-26.3c0.7-15.7-2.4-30.9-2.4-46.4c0-4.1,1.1-8.3,1.2-12.4
			c0.1-4.3-0.9-9.5-1.2-13.9c-1.5-21.2,2.7-41.7,1.6-64.6c-0.7-14.5-0.9-32.6-0.4-48.8c0.2-5.9-1-12.5,0-16.6
			c0.6-2.2,3.6-4.6,5.6-6.6c10-9.7,20.5-19.3,29.5-31c3.8-4.9,8.4-10.7,9.2-16.6C1009.6,492.1,1004.9,477.5,1004.4,465.6z
			 M981.7,498.9c-0.8,5.2-5.7,9.2-9.6,13.5c-4.1,4.6-6.5,9.9-10.4,13.2c-3.4-8.5-4.6-23.1-4-36c0.6-11.8,0.4-22.4,6-27.1
			c0.7,6.6,1.3,13.5,7.6,14.7c1.7,3.1,1.6,5.7,3.2,8.5C977.1,490.4,982.7,492.1,981.7,498.9z"/>
	</g>
	<g>
		<path d="M1157.1,712.9c-0.4-2.4,0.1-4.6,0-7.3c-0.1-2.2-0.9-4.6-1.2-6.9c-0.6-5.3-0.4-10.8-0.4-16.2c0-10.6-0.4-21.7-0.4-32.3
			c0-19.7-2.6-35.6-7.3-49.7c-0.7-2-1.8-4.1-2.3-6.2c-0.4-1.6,0-3.7-0.4-5c-0.2-0.7-1-2-1.5-3.1c-1.5-3.3-2.8-7.6-3.8-10.8
			c2.6-3.8-0.1-7.1-0.8-10.8c-0.5-2.5-0.3-5.2-0.8-7.3c-1-4.4-2.6-9.2-3.8-13.9c-1.3-4.6-3.3-9.6-3.9-14.2c-0.2-1.5,0.2-3.4,0-5
			c-0.2-2.2-1.1-4.1-1.2-6.2c-0.2-3.1,0.4-4.7,0.8-6.9c0.1-0.6-0.5-1.3-0.4-1.9c0.1-1,0.8-1.1,0.8-1.9c-0.1-1.6-0.8-3.1-0.8-4.6
			c0.1-2,1.1-3.5,1.2-5.4c0.1-4.4-1.9-9.1-0.4-13.9c4.2,2,9.3,0.7,14.2,1.2c4.3,0.4,7.6,2.6,11.2,1.9c1.2-0.2,3.3-1.8,3.8-2.7
			c0.8-1.3,0.5-3.9,1.2-6.5c0.6-2.5,1.6-3.8,1.5-6.2c-0.1-2.3-1.5-4.1-2.7-6.5c-2.3-4.7-3.6-9.3-5.8-13.5c-1.2-2.2-2.9-4.1-3.5-6.2
			c-1-3.6-0.9-8.1-1.5-11.9c-0.3-2.1-0.5-4.1-0.8-6.1c0.6-0.8,1.2-1.6,1.4-2.2c0.3-0.7,0.8-2,0-2.4c-0.5,1-1,2-1.7,2.9
			c-0.2-1.4-0.5-2.8-0.9-4.1c-1.6-5-8.1-10.9-12.7-12.7c-0.2-0.1-0.4-0.1-0.6-0.2c-0.4-0.8-0.8-1.5-1.1-2.2
			c-2.3-4.9-1.1-11.1-1.8-16c-0.6-4.8-2.5-8.7-4-11.5c9.1,1.5,9.7,17.1,7.1,24.9c1.5-0.4,2-2.6,2.3-4c0.2-1.2,0.2-2.9,0.2-4.3
			c0.1-5.4-0.8-9.4-2.6-12.9c-2.2-4.5-8.3-6.4-9.3-10.9c-0.7-2.8-0.3-5.7-0.2-7.6c1.7,1.8,4.2,3.7,5.6,7c0.5,1.3,0.6,2.8,1.2,4.1
			c1,2.3,3.9,6.4,5.8,2.8c-0.8,0.1-1,0.8-2,0.5c-0.9-0.2-2.3-2.6-2.7-3.6c-1-2.5-1.3-5.2-3-7.4c-1.6-2-3.5-3.5-4.9-5.5
			c-1.5-2.1-2.3-4.5-3.7-7.2c-2.4-4.6-6.3-8.5-8.3-13.2c-1.3-3.1-2.5-5.3-4-8.5c-1.1-2.6-2.1-5.4-3.4-8c-2.5-4.9-6.1-9.6-9.2-13.1
			c-2.9-3.3-8.7-6.1-13.8-6.4c-2.7-0.2-4.2,0.8-6.1,1c-1.1,0.1-2.3-0.3-3.3-0.3c-6.5,0.1-11.8,1.5-15.2,4.3
			c-1.3,1.1-2.7,2.1-3.6,2.9c-3.5,3.2-5.6,7-8.5,11c-3.4,4.8-4.6,8.7-6.3,14.3c-0.6,1.9-2.1,3.2-2.9,5.1c-1.1,2.8-0.4,6.7-2,9.5
			c-0.5,0.8-1.4,1.3-1.9,2.1c-1,1.5-2.1,3.8-2.2,5.5c-0.1,1.6,0.4,5.1,1.6,5.6c0.5-1-0.3-2.3-0.3-3.4c0-4,2.4-7.6,4.5-9.3
			c-0.2,2.2-1.1,4.1-1.3,6.2c-0.1,2.5,0.1,4.6-0.4,6.4c-0.7,2.5-2.5,4.2-3.3,6.8c-0.5,1.7-0.8,3.5-1.3,5.3
			c-2.1,7.3,1.1,15.5,3.9,21.3c-2.2,0.5-2.2-3-4.1-3.5c-0.9,1,1.1,2.3,0.8,3.2c-3.4-1.2-3.4-6.3-4.9-9.7c-1,0.4-1.3,1.5-1.4,2.4
			c-0.2,4.5,3.8,8.1,6,10.3c-4.6-0.8-8.7-1.9-10-6.5c-0.5-1.7-0.1-3.6-1.3-5.1c-1.2,0.6-0.4,2.9-1.1,3.9c-0.5-0.5-0.3-1.8-1.5-1.4
			c0.2,3.9,2.4,7.5,5.3,10c1.6,1.4,4.2,3,6.9,4c-1.4,0-2.7,0.2-3.7,0.5c-1.2,0.4-2.4,2.4-3.8,3.1c-1.7,0.8-4,1-5.8,1.5
			c-8.4,2.8-15.6,10.4-14.6,21.6c0.7,7.9,6.9,13.7,9.6,19.2c2.3,4.8,2.8,10.1,5.4,14.6c1.8,3.1,4.3,6.6,5.8,9.2
			c0.9,1.5,0.8,2.8,1.5,3.5c1.2,1,4.1,1.1,5.8,1.9c3.1,8.7,6.3,18.1,8.5,26.9c0.5,2.2,0.3,4.3,0.8,6.5c0.6,2.9,2,5.5,1.9,8.9
			c0,1.7-0.5,3.5-0.8,5.4c-1,8.1-4.1,13-7.3,20c-1.1,2.5-2,5.4-3.1,8.1c-1.1,2.6-2.8,5.2-3.5,7.7c-0.4,1.5-0.1,3-0.4,4.6
			c-0.9,5.1-1.8,10.4-2.7,15.8c-1.2,7.5-2.6,15.3-2.7,21.9c0,4.9,1,9.8,1.9,15c0.9,4.9,1.2,10.1,1.9,15c1.4,9.7,3.6,19.3,5.8,28.5
			c3.4,14.1,6,28.6,8.1,43.1c0.9,6.3,2.7,12.4,3.1,18.5c0.4,6.3,0.8,15.3,0.4,20.8c-0.2,2.1-1.3,4.2-1.5,6.2c-0.2,2,0.1,4.2,0,6.2
			c-0.4,5.4-1.8,10.8-2.3,16.2c-1.9,18.6,0.4,35.3,2.3,52.4c-1.7,1.4-4.5,1.7-5.8,3.5c-0.9,1.2-1,3.5-1.9,5
			c-0.5,0.9-1.6,1.1-1.9,1.5c-4.5,5.8-1.1,19.5,0,28.1c0.9,7.6,0.1,14.8-0.4,22.3c-1,15.2,6.4,25.2,14.6,30.8
			c2.6,1.8,5.8,2.4,8.5,4.2c3,2.1,4.7,5.9,8.1,7.3c3.9,1.6,10,2.1,15.4,2.3c5.5,0.3,11.7,0.7,16.2-1.5c1.9-9.4,1.2-20.4-3.5-26.2
			c4.5-3.1,1.2-7.5,0-12.3c-0.7-3.1-1.4-5.9-1.5-8.9c3.9-2.5,8.2-6,11.9-8.5c4.1-2.8,5.2-4.3,7.7-8.9c3.6-6.3,6.8-13.1,9.2-20
			c3.4-9.7,5.1-20.6,8.9-30.4c5.3-14,12.8-27.3,18.5-40.4c3.3-7.6,5.7-16.2,10-21.9c1.1-1.5,2.8-2.3,3.8-3.9
			c1.7-2.4,3.6-6.4,4.6-9.6c1.7-5.4,1.7-12.2,0-18.9C1160.1,720.1,1157.8,716.8,1157.1,712.9z M1049.2,405c0,0.2-0.1,0.2-0.1,0.4
			c-1.2,1.9-3.6,3.2-6.3,3.9c-0.6-0.2-1.1-0.4-1.7-0.6c0.7,0,1.4-0.1,1.8-0.2C1045.1,407.8,1047,405.8,1049.2,405z M1114.8,739.4
			c-3.9,3.7-7.3,8.5-10.8,13.1c-6.5,8.6-13.6,18.6-17.7,29.6c-2.1,5.8-2.9,12.3-6.9,16.6c0.3-11.9-3.6-24.8-1.2-37.3
			c0.6-3.1,2.4-6,2.7-9.2c0.6-6.2,0.3-12.7,0.8-19.3c1.5-19.1-1.1-38.4-1.2-57.4c0-8.3,1.7-16.3,1.9-24.3c0.1-3.2-0.7-6.6-0.8-10
			c-0.1-5.9,1.3-12.1-0.8-16.9c0.4-1.1,2-0.1,2.7,0.4c1.9,1.4,3.9,7.1,5.8,10.4c2.2,4,4.3,7.7,5.4,10.8c2.1,5.9,2.9,12.7,4.6,19.6
			c1.5,6,4.4,12,6.2,18.1c1.8,6.3,3.7,12.6,5.4,18.9c1.9,6.8,2.8,13.6,5,19.3c1.8,4.5,4.9,7.8,6.5,11.5
			C1120.4,736,1117.2,737.2,1114.8,739.4z"/>
	</g>
</g>
</svg>
